# xmcd
#
# Track frame offsets: 
#        150
#        21750
#        40566
#        58787
#        77887
#        98781
#        119735
#        145257
#        165422
#        181630
#        205793
#        224287
#        240985
#        260858
#        279452
#        297494
#
# Disc length: 4227 seconds
#
# Revision: 0
# Processed by: cddbd v1.5.2PL0 Copyright (c) Steve Scherf et al.
# Submitted via: ExactAudioCopy v0.99pb5
#
DISCID=e7108110
DTITLE=Eros Ramazzotti - World name
DYEAR=2003
DGENRE=Pop
TTITLE0=Cose Della Vita (with Tina Turner)
TTITLE1=Pui Che Puoi
TTITLE2=That's All I Need To Know (with Joe Cocker)
TTITLE3=Quanto Amore Sei
TTITLE4=Un' Altra Te
TTITLE5=Improvvisa Luce Ad Est
TTITLE6=A Mezza Via
TTITLE7=Favola
TTITLE8=Terra Promassa
TTITLE9=Se Bastasse Una Canzone
TTITLE10=Nuovi Eroi
TTITLE11=Nel Cuore Lei (with Andrea Bocelli)
TTITLE12=L'aquila E Il Condor
TTITLE13=Amica Donna Mia
TTITLE14=Fuoco Nel Fuoco
TTITLE15=Nella'Azzurrita
EXTD=
EXTT0=
EXTT1=
EXTT2=
EXTT3=
EXTT4=
EXTT5=
EXTT6=
EXTT7=
EXTT8=
EXTT9=
EXTT10=
EXTT11=
EXTT12=
EXTT13=
EXTT14=
EXTT15=
PLAYORDER=
